<mxfile host="app.diagrams.net" agent="Mozilla/5.0 (Windows NT 10.0; Win64; x64) AppleWebKit/537.36 (KHTML, like Gecko) Chrome/128.0.0.0 Safari/537.36" version="24.7.14">
  <diagram name="Page-1" id="NadFvdaQnZn98KXYc_No">
    <mxGraphModel dx="3195" dy="1013" grid="1" gridSize="10" guides="1" tooltips="1" connect="1" arrows="1" fold="1" page="1" pageScale="1" pageWidth="850" pageHeight="1100" math="0" shadow="0">
      <root>
        <mxCell id="0" />
        <mxCell id="1" parent="0" />
        <mxCell id="vROLt3bXNG_nlEDYn_nC-15" value="" style="group" vertex="1" connectable="0" parent="1">
          <mxGeometry x="-20" y="300" width="180" height="250" as="geometry" />
        </mxCell>
        <mxCell id="vROLt3bXNG_nlEDYn_nC-2" value="Admin" style="rounded=0;whiteSpace=wrap;html=1;" vertex="1" parent="vROLt3bXNG_nlEDYn_nC-15">
          <mxGeometry width="140" height="30" as="geometry" />
        </mxCell>
        <mxCell id="vROLt3bXNG_nlEDYn_nC-3" value="" style="rounded=0;whiteSpace=wrap;html=1;" vertex="1" parent="vROLt3bXNG_nlEDYn_nC-15">
          <mxGeometry y="30" width="140" height="60" as="geometry" />
        </mxCell>
        <mxCell id="vROLt3bXNG_nlEDYn_nC-5" value="-Id: int&lt;div&gt;-Name: char&lt;/div&gt;&lt;div style=&quot;&quot;&gt;-password: char&lt;/div&gt;" style="text;strokeColor=none;align=left;fillColor=none;html=1;verticalAlign=middle;whiteSpace=wrap;rounded=0;" vertex="1" parent="vROLt3bXNG_nlEDYn_nC-15">
          <mxGeometry x="10" y="45" width="140" height="30" as="geometry" />
        </mxCell>
        <mxCell id="vROLt3bXNG_nlEDYn_nC-6" value="" style="rounded=0;whiteSpace=wrap;html=1;" vertex="1" parent="vROLt3bXNG_nlEDYn_nC-15">
          <mxGeometry y="90" width="140" height="160" as="geometry" />
        </mxCell>
        <mxCell id="vROLt3bXNG_nlEDYn_nC-7" value="+ Login ()&lt;div&gt;+ Logout ()&lt;/div&gt;&lt;div&gt;+ Add New Teacher ()&lt;/div&gt;&lt;div&gt;+ Modify Teacher ()&lt;/div&gt;&lt;div&gt;+ Add New Student ()&lt;/div&gt;&lt;div&gt;+ Modify Student ()&lt;/div&gt;&lt;div&gt;+ Add New Subject ()&lt;/div&gt;&lt;div&gt;+ Modify Subject ()&lt;/div&gt;&lt;div&gt;+ Add New Class ()&lt;/div&gt;&lt;div&gt;+ Modify Class&lt;span style=&quot;background-color: initial;&quot;&gt;&amp;nbsp;()&lt;/span&gt;&lt;/div&gt;" style="text;strokeColor=none;align=left;fillColor=none;html=1;verticalAlign=middle;whiteSpace=wrap;rounded=0;" vertex="1" parent="vROLt3bXNG_nlEDYn_nC-15">
          <mxGeometry x="10" y="155" width="170" height="30" as="geometry" />
        </mxCell>
        <mxCell id="vROLt3bXNG_nlEDYn_nC-18" value="" style="group" vertex="1" connectable="0" parent="1">
          <mxGeometry x="310" y="300" width="200" height="190" as="geometry" />
        </mxCell>
        <mxCell id="vROLt3bXNG_nlEDYn_nC-10" value="" style="rounded=0;whiteSpace=wrap;html=1;" vertex="1" parent="vROLt3bXNG_nlEDYn_nC-18">
          <mxGeometry y="100" width="160" height="90" as="geometry" />
        </mxCell>
        <mxCell id="vROLt3bXNG_nlEDYn_nC-11" value="" style="rounded=0;whiteSpace=wrap;html=1;" vertex="1" parent="vROLt3bXNG_nlEDYn_nC-18">
          <mxGeometry y="30" width="160" height="70" as="geometry" />
        </mxCell>
        <mxCell id="vROLt3bXNG_nlEDYn_nC-12" value="Teacher" style="rounded=0;whiteSpace=wrap;html=1;" vertex="1" parent="vROLt3bXNG_nlEDYn_nC-18">
          <mxGeometry width="160" height="30" as="geometry" />
        </mxCell>
        <mxCell id="vROLt3bXNG_nlEDYn_nC-13" value="-Id: int&lt;div&gt;-Name: char&lt;/div&gt;&lt;div&gt;-Phone No: char&lt;/div&gt;&lt;div&gt;-Subject: char&lt;/div&gt;" style="text;strokeColor=none;align=left;fillColor=none;html=1;verticalAlign=middle;whiteSpace=wrap;rounded=0;" vertex="1" parent="vROLt3bXNG_nlEDYn_nC-18">
          <mxGeometry x="10" y="50" width="160" height="30" as="geometry" />
        </mxCell>
        <mxCell id="vROLt3bXNG_nlEDYn_nC-14" value="+ Prepare Test Paper ()&lt;div&gt;+ Mark Attendance ()&lt;/div&gt;&lt;div&gt;+ Check Paper ()&lt;/div&gt;&lt;div&gt;+ Declare Result ()&lt;/div&gt;&lt;div&gt;+ Prepare Report Card ()&lt;/div&gt;" style="text;strokeColor=none;align=left;fillColor=none;html=1;verticalAlign=middle;whiteSpace=wrap;rounded=0;" vertex="1" parent="vROLt3bXNG_nlEDYn_nC-18">
          <mxGeometry x="10" y="130" width="190" height="30" as="geometry" />
        </mxCell>
        <mxCell id="vROLt3bXNG_nlEDYn_nC-22" value="" style="group" vertex="1" connectable="0" parent="1">
          <mxGeometry x="590" y="400" width="170" height="100" as="geometry" />
        </mxCell>
        <mxCell id="vROLt3bXNG_nlEDYn_nC-19" value="" style="rounded=0;whiteSpace=wrap;html=1;" vertex="1" parent="vROLt3bXNG_nlEDYn_nC-22">
          <mxGeometry y="30" width="120" height="70" as="geometry" />
        </mxCell>
        <mxCell id="vROLt3bXNG_nlEDYn_nC-20" value="Test Paper" style="rounded=0;whiteSpace=wrap;html=1;" vertex="1" parent="vROLt3bXNG_nlEDYn_nC-22">
          <mxGeometry width="120" height="30" as="geometry" />
        </mxCell>
        <mxCell id="vROLt3bXNG_nlEDYn_nC-21" value="-Id: int&lt;div&gt;-Name: char&lt;/div&gt;&lt;div&gt;-Duration: Time&lt;/div&gt;&lt;div&gt;-Subject: char&lt;/div&gt;" style="text;strokeColor=none;align=left;fillColor=none;html=1;verticalAlign=middle;whiteSpace=wrap;rounded=0;" vertex="1" parent="vROLt3bXNG_nlEDYn_nC-22">
          <mxGeometry x="10" y="50" width="160" height="30" as="geometry" />
        </mxCell>
        <mxCell id="vROLt3bXNG_nlEDYn_nC-28" value="" style="group" vertex="1" connectable="0" parent="1">
          <mxGeometry x="390" y="570" width="180" height="160" as="geometry" />
        </mxCell>
        <mxCell id="vROLt3bXNG_nlEDYn_nC-23" value="Student" style="rounded=0;whiteSpace=wrap;html=1;" vertex="1" parent="vROLt3bXNG_nlEDYn_nC-28">
          <mxGeometry width="180" height="30" as="geometry" />
        </mxCell>
        <mxCell id="vROLt3bXNG_nlEDYn_nC-24" value="" style="rounded=0;whiteSpace=wrap;html=1;" vertex="1" parent="vROLt3bXNG_nlEDYn_nC-28">
          <mxGeometry y="100" width="180" height="60" as="geometry" />
        </mxCell>
        <mxCell id="vROLt3bXNG_nlEDYn_nC-25" value="" style="rounded=0;whiteSpace=wrap;html=1;" vertex="1" parent="vROLt3bXNG_nlEDYn_nC-28">
          <mxGeometry y="30" width="180" height="70" as="geometry" />
        </mxCell>
        <mxCell id="vROLt3bXNG_nlEDYn_nC-26" value="&lt;span style=&quot;color: rgb(0, 0, 0); font-family: Helvetica; font-size: 12px; font-style: normal; font-variant-ligatures: normal; font-variant-caps: normal; font-weight: 400; letter-spacing: normal; orphans: 2; text-align: left; text-indent: 0px; text-transform: none; widows: 2; word-spacing: 0px; -webkit-text-stroke-width: 0px; white-space: normal; background-color: rgb(251, 251, 251); text-decoration-thickness: initial; text-decoration-style: initial; text-decoration-color: initial; display: inline !important; float: none;&quot;&gt;-Id: int&lt;/span&gt;&lt;div style=&quot;forced-color-adjust: none; color: rgb(0, 0, 0); font-family: Helvetica; font-size: 12px; font-style: normal; font-variant-ligatures: normal; font-variant-caps: normal; font-weight: 400; letter-spacing: normal; orphans: 2; text-align: left; text-indent: 0px; text-transform: none; widows: 2; word-spacing: 0px; -webkit-text-stroke-width: 0px; white-space: normal; background-color: rgb(251, 251, 251); text-decoration-thickness: initial; text-decoration-style: initial; text-decoration-color: initial;&quot;&gt;-Name: char&lt;/div&gt;&lt;div style=&quot;forced-color-adjust: none; color: rgb(0, 0, 0); font-family: Helvetica; font-size: 12px; font-style: normal; font-variant-ligatures: normal; font-variant-caps: normal; font-weight: 400; letter-spacing: normal; orphans: 2; text-align: left; text-indent: 0px; text-transform: none; widows: 2; word-spacing: 0px; -webkit-text-stroke-width: 0px; white-space: normal; background-color: rgb(251, 251, 251); text-decoration-thickness: initial; text-decoration-style: initial; text-decoration-color: initial;&quot;&gt;-Phone No: char&lt;/div&gt;&lt;div style=&quot;forced-color-adjust: none; color: rgb(0, 0, 0); font-family: Helvetica; font-size: 12px; font-style: normal; font-variant-ligatures: normal; font-variant-caps: normal; font-weight: 400; letter-spacing: normal; orphans: 2; text-align: left; text-indent: 0px; text-transform: none; widows: 2; word-spacing: 0px; -webkit-text-stroke-width: 0px; white-space: normal; background-color: rgb(251, 251, 251); text-decoration-thickness: initial; text-decoration-style: initial; text-decoration-color: initial;&quot;&gt;-Class: char&lt;/div&gt;" style="text;whiteSpace=wrap;html=1;" vertex="1" parent="vROLt3bXNG_nlEDYn_nC-28">
          <mxGeometry x="10" y="30" width="120" height="70" as="geometry" />
        </mxCell>
        <mxCell id="vROLt3bXNG_nlEDYn_nC-27" value="+ Get Enrollement number ()&lt;div&gt;+ Write Exam ()&lt;/div&gt;&lt;div&gt;+ Upload Assignment ()&lt;/div&gt;" style="text;strokeColor=none;align=left;fillColor=none;html=1;verticalAlign=middle;whiteSpace=wrap;rounded=0;" vertex="1" parent="vROLt3bXNG_nlEDYn_nC-28">
          <mxGeometry x="10" y="115" width="160" height="30" as="geometry" />
        </mxCell>
        <mxCell id="vROLt3bXNG_nlEDYn_nC-35" value="" style="group" vertex="1" connectable="0" parent="1">
          <mxGeometry x="-180" y="620" width="130" height="120" as="geometry" />
        </mxCell>
        <mxCell id="vROLt3bXNG_nlEDYn_nC-29" value="" style="rounded=0;whiteSpace=wrap;html=1;" vertex="1" parent="vROLt3bXNG_nlEDYn_nC-35">
          <mxGeometry y="90" width="120" height="30" as="geometry" />
        </mxCell>
        <mxCell id="vROLt3bXNG_nlEDYn_nC-30" value="" style="rounded=0;whiteSpace=wrap;html=1;" vertex="1" parent="vROLt3bXNG_nlEDYn_nC-35">
          <mxGeometry y="30" width="120" height="60" as="geometry" />
        </mxCell>
        <mxCell id="vROLt3bXNG_nlEDYn_nC-31" value="Subject" style="rounded=0;whiteSpace=wrap;html=1;" vertex="1" parent="vROLt3bXNG_nlEDYn_nC-35">
          <mxGeometry width="120" height="30" as="geometry" />
        </mxCell>
        <mxCell id="vROLt3bXNG_nlEDYn_nC-33" value="&lt;span style=&quot;color: rgb(0, 0, 0); font-family: Helvetica; font-size: 12px; font-style: normal; font-variant-ligatures: normal; font-variant-caps: normal; font-weight: 400; letter-spacing: normal; orphans: 2; text-align: left; text-indent: 0px; text-transform: none; widows: 2; word-spacing: 0px; -webkit-text-stroke-width: 0px; white-space: normal; background-color: rgb(251, 251, 251); text-decoration-thickness: initial; text-decoration-style: initial; text-decoration-color: initial; display: inline !important; float: none;&quot;&gt;-Id: int&lt;/span&gt;&lt;div style=&quot;forced-color-adjust: none; color: rgb(0, 0, 0); font-family: Helvetica; font-size: 12px; font-style: normal; font-variant-ligatures: normal; font-variant-caps: normal; font-weight: 400; letter-spacing: normal; orphans: 2; text-align: left; text-indent: 0px; text-transform: none; widows: 2; word-spacing: 0px; -webkit-text-stroke-width: 0px; white-space: normal; background-color: rgb(251, 251, 251); text-decoration-thickness: initial; text-decoration-style: initial; text-decoration-color: initial;&quot;&gt;-Name: char&lt;/div&gt;&lt;div style=&quot;forced-color-adjust: none; color: rgb(0, 0, 0); font-family: Helvetica; font-size: 12px; font-style: normal; font-variant-ligatures: normal; font-variant-caps: normal; font-weight: 400; letter-spacing: normal; orphans: 2; text-align: left; text-indent: 0px; text-transform: none; widows: 2; word-spacing: 0px; -webkit-text-stroke-width: 0px; white-space: normal; background-color: rgb(251, 251, 251); text-decoration-thickness: initial; text-decoration-style: initial; text-decoration-color: initial;&quot;&gt;-ClassID: int&lt;/div&gt;" style="text;whiteSpace=wrap;html=1;" vertex="1" parent="vROLt3bXNG_nlEDYn_nC-35">
          <mxGeometry x="10" y="30" width="120" height="60" as="geometry" />
        </mxCell>
        <mxCell id="vROLt3bXNG_nlEDYn_nC-34" value="+ Display Subject ()" style="text;strokeColor=none;align=left;fillColor=none;html=1;verticalAlign=middle;whiteSpace=wrap;rounded=0;" vertex="1" parent="vROLt3bXNG_nlEDYn_nC-35">
          <mxGeometry x="10" y="90" width="120" height="30" as="geometry" />
        </mxCell>
        <mxCell id="vROLt3bXNG_nlEDYn_nC-36" value="" style="group" vertex="1" connectable="0" parent="1">
          <mxGeometry x="5" y="760" width="130" height="120" as="geometry" />
        </mxCell>
        <mxCell id="vROLt3bXNG_nlEDYn_nC-37" value="" style="rounded=0;whiteSpace=wrap;html=1;" vertex="1" parent="vROLt3bXNG_nlEDYn_nC-36">
          <mxGeometry y="70" width="120" height="30" as="geometry" />
        </mxCell>
        <mxCell id="vROLt3bXNG_nlEDYn_nC-38" value="" style="rounded=0;whiteSpace=wrap;html=1;" vertex="1" parent="vROLt3bXNG_nlEDYn_nC-36">
          <mxGeometry y="30" width="120" height="40" as="geometry" />
        </mxCell>
        <mxCell id="vROLt3bXNG_nlEDYn_nC-39" value="Division" style="rounded=0;whiteSpace=wrap;html=1;" vertex="1" parent="vROLt3bXNG_nlEDYn_nC-36">
          <mxGeometry width="120" height="30" as="geometry" />
        </mxCell>
        <mxCell id="vROLt3bXNG_nlEDYn_nC-40" value="&lt;span style=&quot;color: rgb(0, 0, 0); font-family: Helvetica; font-size: 12px; font-style: normal; font-variant-ligatures: normal; font-variant-caps: normal; font-weight: 400; letter-spacing: normal; orphans: 2; text-align: left; text-indent: 0px; text-transform: none; widows: 2; word-spacing: 0px; -webkit-text-stroke-width: 0px; white-space: normal; background-color: rgb(251, 251, 251); text-decoration-thickness: initial; text-decoration-style: initial; text-decoration-color: initial; display: inline !important; float: none;&quot;&gt;-Id: int&lt;/span&gt;&lt;div style=&quot;forced-color-adjust: none; color: rgb(0, 0, 0); font-family: Helvetica; font-size: 12px; font-style: normal; font-variant-ligatures: normal; font-variant-caps: normal; font-weight: 400; letter-spacing: normal; orphans: 2; text-align: left; text-indent: 0px; text-transform: none; widows: 2; word-spacing: 0px; -webkit-text-stroke-width: 0px; white-space: normal; background-color: rgb(251, 251, 251); text-decoration-thickness: initial; text-decoration-style: initial; text-decoration-color: initial;&quot;&gt;-Name: char&lt;/div&gt;" style="text;whiteSpace=wrap;html=1;" vertex="1" parent="vROLt3bXNG_nlEDYn_nC-36">
          <mxGeometry x="10" y="30" width="120" height="30" as="geometry" />
        </mxCell>
        <mxCell id="vROLt3bXNG_nlEDYn_nC-41" value="+ Display Division ()" style="text;strokeColor=none;align=left;fillColor=none;html=1;verticalAlign=middle;whiteSpace=wrap;rounded=0;" vertex="1" parent="vROLt3bXNG_nlEDYn_nC-36">
          <mxGeometry x="10" y="70" width="120" height="30" as="geometry" />
        </mxCell>
        <mxCell id="vROLt3bXNG_nlEDYn_nC-42" value="" style="group" vertex="1" connectable="0" parent="1">
          <mxGeometry x="160" y="600" width="130" height="120" as="geometry" />
        </mxCell>
        <mxCell id="vROLt3bXNG_nlEDYn_nC-43" value="" style="rounded=0;whiteSpace=wrap;html=1;" vertex="1" parent="vROLt3bXNG_nlEDYn_nC-42">
          <mxGeometry y="90" width="120" height="30" as="geometry" />
        </mxCell>
        <mxCell id="vROLt3bXNG_nlEDYn_nC-44" value="" style="rounded=0;whiteSpace=wrap;html=1;" vertex="1" parent="vROLt3bXNG_nlEDYn_nC-42">
          <mxGeometry y="30" width="120" height="60" as="geometry" />
        </mxCell>
        <mxCell id="vROLt3bXNG_nlEDYn_nC-45" value="Class" style="rounded=0;whiteSpace=wrap;html=1;" vertex="1" parent="vROLt3bXNG_nlEDYn_nC-42">
          <mxGeometry width="120" height="30" as="geometry" />
        </mxCell>
        <mxCell id="vROLt3bXNG_nlEDYn_nC-46" value="&lt;span style=&quot;color: rgb(0, 0, 0); font-family: Helvetica; font-size: 12px; font-style: normal; font-variant-ligatures: normal; font-variant-caps: normal; font-weight: 400; letter-spacing: normal; orphans: 2; text-align: left; text-indent: 0px; text-transform: none; widows: 2; word-spacing: 0px; -webkit-text-stroke-width: 0px; white-space: normal; background-color: rgb(251, 251, 251); text-decoration-thickness: initial; text-decoration-style: initial; text-decoration-color: initial; display: inline !important; float: none;&quot;&gt;-Id: int&lt;/span&gt;&lt;div style=&quot;forced-color-adjust: none; color: rgb(0, 0, 0); font-family: Helvetica; font-size: 12px; font-style: normal; font-variant-ligatures: normal; font-variant-caps: normal; font-weight: 400; letter-spacing: normal; orphans: 2; text-align: left; text-indent: 0px; text-transform: none; widows: 2; word-spacing: 0px; -webkit-text-stroke-width: 0px; white-space: normal; background-color: rgb(251, 251, 251); text-decoration-thickness: initial; text-decoration-style: initial; text-decoration-color: initial;&quot;&gt;-Name: char&lt;/div&gt;&lt;div style=&quot;forced-color-adjust: none; color: rgb(0, 0, 0); font-family: Helvetica; font-size: 12px; font-style: normal; font-variant-ligatures: normal; font-variant-caps: normal; font-weight: 400; letter-spacing: normal; orphans: 2; text-align: left; text-indent: 0px; text-transform: none; widows: 2; word-spacing: 0px; -webkit-text-stroke-width: 0px; white-space: normal; background-color: rgb(251, 251, 251); text-decoration-thickness: initial; text-decoration-style: initial; text-decoration-color: initial;&quot;&gt;-Division ID: int&lt;/div&gt;" style="text;whiteSpace=wrap;html=1;" vertex="1" parent="vROLt3bXNG_nlEDYn_nC-42">
          <mxGeometry x="10" y="30" width="120" height="60" as="geometry" />
        </mxCell>
        <mxCell id="vROLt3bXNG_nlEDYn_nC-47" value="+ Display Class ()" style="text;strokeColor=none;align=left;fillColor=none;html=1;verticalAlign=middle;whiteSpace=wrap;rounded=0;" vertex="1" parent="vROLt3bXNG_nlEDYn_nC-42">
          <mxGeometry x="10" y="90" width="120" height="30" as="geometry" />
        </mxCell>
        <mxCell id="vROLt3bXNG_nlEDYn_nC-55" value="" style="endArrow=none;html=1;rounded=0;exitX=0.5;exitY=0;exitDx=0;exitDy=0;entryX=0.5;entryY=0;entryDx=0;entryDy=0;" edge="1" parent="1" source="vROLt3bXNG_nlEDYn_nC-2" target="vROLt3bXNG_nlEDYn_nC-12">
          <mxGeometry width="50" height="50" relative="1" as="geometry">
            <mxPoint x="440" y="580" as="sourcePoint" />
            <mxPoint x="490" y="530" as="targetPoint" />
            <Array as="points">
              <mxPoint x="50" y="160" />
              <mxPoint x="220" y="160" />
              <mxPoint x="390" y="160" />
            </Array>
          </mxGeometry>
        </mxCell>
        <mxCell id="vROLt3bXNG_nlEDYn_nC-56" value="" style="endArrow=classic;html=1;rounded=0;exitX=1.005;exitY=0.138;exitDx=0;exitDy=0;entryX=0.5;entryY=0;entryDx=0;entryDy=0;exitPerimeter=0;" edge="1" parent="1" source="vROLt3bXNG_nlEDYn_nC-11" target="vROLt3bXNG_nlEDYn_nC-20">
          <mxGeometry width="50" height="50" relative="1" as="geometry">
            <mxPoint x="440" y="580" as="sourcePoint" />
            <mxPoint x="490" y="530" as="targetPoint" />
            <Array as="points">
              <mxPoint x="560" y="340" />
              <mxPoint x="650" y="340" />
            </Array>
          </mxGeometry>
        </mxCell>
        <mxCell id="vROLt3bXNG_nlEDYn_nC-57" value="" style="endArrow=none;html=1;rounded=0;exitX=0.22;exitY=-0.01;exitDx=0;exitDy=0;entryX=0.75;entryY=1;entryDx=0;entryDy=0;exitPerimeter=0;" edge="1" parent="1" source="vROLt3bXNG_nlEDYn_nC-23" target="vROLt3bXNG_nlEDYn_nC-10">
          <mxGeometry width="50" height="50" relative="1" as="geometry">
            <mxPoint x="420" y="500" as="sourcePoint" />
            <mxPoint x="470" y="450" as="targetPoint" />
          </mxGeometry>
        </mxCell>
        <mxCell id="vROLt3bXNG_nlEDYn_nC-59" value="" style="endArrow=none;html=1;rounded=0;entryX=0.5;entryY=1;entryDx=0;entryDy=0;exitX=1;exitY=0.75;exitDx=0;exitDy=0;" edge="1" parent="1" source="vROLt3bXNG_nlEDYn_nC-25" target="vROLt3bXNG_nlEDYn_nC-19">
          <mxGeometry width="50" height="50" relative="1" as="geometry">
            <mxPoint x="410" y="470" as="sourcePoint" />
            <mxPoint x="460" y="420" as="targetPoint" />
            <Array as="points">
              <mxPoint x="650" y="653" />
            </Array>
          </mxGeometry>
        </mxCell>
        <mxCell id="vROLt3bXNG_nlEDYn_nC-60" value="" style="endArrow=none;html=1;rounded=0;entryX=0;entryY=0.25;entryDx=0;entryDy=0;" edge="1" parent="1" target="vROLt3bXNG_nlEDYn_nC-25">
          <mxGeometry width="50" height="50" relative="1" as="geometry">
            <mxPoint x="120" y="490" as="sourcePoint" />
            <mxPoint x="480" y="540" as="targetPoint" />
          </mxGeometry>
        </mxCell>
        <mxCell id="vROLt3bXNG_nlEDYn_nC-61" value="" style="endArrow=none;html=1;rounded=0;entryX=0.75;entryY=1;entryDx=0;entryDy=0;exitX=0;exitY=0.25;exitDx=0;exitDy=0;" edge="1" parent="1" source="vROLt3bXNG_nlEDYn_nC-44" target="vROLt3bXNG_nlEDYn_nC-6">
          <mxGeometry width="50" height="50" relative="1" as="geometry">
            <mxPoint x="430" y="590" as="sourcePoint" />
            <mxPoint x="480" y="540" as="targetPoint" />
          </mxGeometry>
        </mxCell>
        <mxCell id="vROLt3bXNG_nlEDYn_nC-62" value="" style="endArrow=none;html=1;rounded=0;entryX=0.415;entryY=1.02;entryDx=0;entryDy=0;entryPerimeter=0;exitX=0.295;exitY=0;exitDx=0;exitDy=0;exitPerimeter=0;" edge="1" parent="1" source="vROLt3bXNG_nlEDYn_nC-39" target="vROLt3bXNG_nlEDYn_nC-6">
          <mxGeometry width="50" height="50" relative="1" as="geometry">
            <mxPoint x="130" y="680" as="sourcePoint" />
            <mxPoint x="180" y="630" as="targetPoint" />
          </mxGeometry>
        </mxCell>
        <mxCell id="vROLt3bXNG_nlEDYn_nC-63" value="" style="endArrow=none;html=1;rounded=0;exitX=0.25;exitY=0;exitDx=0;exitDy=0;entryX=-0.001;entryY=0.677;entryDx=0;entryDy=0;entryPerimeter=0;" edge="1" parent="1" source="vROLt3bXNG_nlEDYn_nC-31" target="vROLt3bXNG_nlEDYn_nC-6">
          <mxGeometry width="50" height="50" relative="1" as="geometry">
            <mxPoint x="130" y="680" as="sourcePoint" />
            <mxPoint x="180" y="630" as="targetPoint" />
          </mxGeometry>
        </mxCell>
        <mxCell id="vROLt3bXNG_nlEDYn_nC-64" value="" style="swimlane;startSize=0;" vertex="1" parent="1">
          <mxGeometry x="-240" y="120" width="1000" height="790" as="geometry" />
        </mxCell>
      </root>
    </mxGraphModel>
  </diagram>
</mxfile>
